<svg width="44" height="42" viewBox="0 0 44 42" fill="none" xmlns="http://www.w3.org/2000/svg">
<ellipse cx="22" cy="21" rx="22" ry="21" fill="#F4F4F6"/>
<path d="M21.3309 30.7777L11.0981 31.1602C11.1065 32.7063 10.7165 32.7377 9.48486 31.6644C8.77738 33.5309 7.89639 33.3117 7.16586 30.0511C6.43533 26.7906 8.54228 22.9424 8.27497 22.8925C5.77447 17.0921 6.68292 15.5818 13.4171 16.7421C16.576 15.0725 19.0702 14.2024 21.4832 14.0752C24.2805 13.9278 26.9687 14.7789 30.4567 16.5404C36.5134 15.596 37.8726 16.6922 35.5988 22.3884C36.6812 24.9493 36.9772 26.5741 36.9096 29.8495C36.502 31.9627 36.0666 31.9835 34.9939 30.3536C34.3049 31.3171 33.9401 31.5018 33.3807 30.3536L22.5923 30.6561C22.0091 31.2634 21.736 31.2707 21.3309 30.7777Z" fill="#646361"/>
<path d="M21.8865 30.7569L21.3309 30.7777M21.3309 30.7777L11.0981 31.1602C11.1065 32.7063 10.7165 32.7377 9.48486 31.6644C8.77738 33.5309 7.89639 33.3117 7.16586 30.0511C6.43533 26.7906 8.54228 22.9424 8.27497 22.8925C5.77447 17.0921 6.68292 15.5818 13.4171 16.7421C16.576 15.0725 19.0702 14.2024 21.4832 14.0752M21.3309 30.7777C21.736 31.2707 22.0091 31.2634 22.5923 30.6561L33.3807 30.3536C33.9401 31.5018 34.3049 31.3171 34.9939 30.3536C36.0666 31.9835 36.502 31.9627 36.9096 29.8495C36.9772 26.5741 36.6812 24.9493 35.5988 22.3884C37.8726 16.6922 36.5134 15.596 30.4567 16.5404C26.9687 14.7789 24.2805 13.9278 21.4832 14.0752M22.0881 17.6495C21.8641 17.1559 21.6824 16.8883 21.1807 16.4396C22.7282 16.7273 23.5692 16.8043 25.0121 16.7421C25.1911 16.6976 25.2197 16.6551 25.1129 16.5404C24.4603 15.9298 23.436 15.6953 21.2815 15.3305C23.6922 15.4179 24.9377 15.4524 25.8187 15.3305C26.0489 15.2538 26.1335 15.2011 25.9195 15.0281C24.3813 14.4627 23.3788 14.2849 21.4832 14.0752" stroke="black" stroke-width="0.3"/>
<path d="M11.4565 20.0404C10.1964 20.8777 9.68131 21.6459 8.86281 22.9184C7.99767 24.2634 7.20114 25.0917 7.26666 26.6896C7.318 27.9417 7.65329 28.7111 8.46377 29.6669C10.0794 31.5721 12.5723 32.0842 14.7486 30.8578C14.993 30.7201 15.1215 30.6272 15.3472 30.4608C16.5742 29.5561 16.9387 28.677 17.7414 27.3843C20.5443 22.8704 19.5403 19.6731 16.245 18.7502C14.3801 18.2279 13.0696 18.9685 11.4565 20.0404Z" fill="#353535" stroke="black" stroke-width="0.3"/>
<path d="M32.3251 19.2119C33.5853 20.0492 34.1004 20.8174 34.9189 22.0899C35.784 23.4349 36.5805 24.2632 36.515 25.8611C36.4637 27.1132 36.1284 27.8826 35.3179 28.8384C33.7023 30.7436 31.2094 31.2557 29.0331 30.0293C28.7887 29.8916 28.6602 29.7987 28.4345 29.6323C27.2075 28.7276 26.843 27.8485 26.0403 26.5558C23.2373 22.0419 24.2414 18.8446 27.5367 17.9217C29.4016 17.3994 30.7121 18.14 32.3251 19.2119Z" fill="#353535" stroke="black" stroke-width="0.3"/>
<path d="M34.5905 20.8788L32.0699 17.798C32.0699 17.798 34.5294 17.0708 35.1955 18.1005C35.7986 19.0328 34.5905 20.8788 34.5905 20.8788Z" fill="#B661A4"/>
<path d="M34.7922 21.1252L34.5905 20.8788M34.5905 20.8788L32.0699 17.798C32.0699 17.798 34.5294 17.0708 35.1955 18.1005C35.7986 19.0328 34.5905 20.8788 34.5905 20.8788Z" stroke="black" stroke-width="0.3"/>
<path d="M11.6256 18.1174C10.4625 19.3233 9.88437 20.1574 9.16079 21.5455C8.422 20.4658 7.84615 19.2613 8.70169 18.3191C9.47112 17.4717 10.4688 17.7175 11.6256 18.1174Z" fill="#B661A4"/>
<path d="M8.90334 22.0497C8.99185 21.8733 9.07729 21.7057 9.16079 21.5455M9.16079 21.5455C9.88437 20.1574 10.4625 19.3233 11.6256 18.1174C10.4688 17.7175 9.47112 17.4717 8.70169 18.3191C7.84615 19.2613 8.422 20.4658 9.16079 21.5455Z" stroke="black" stroke-width="0.3"/>
<path d="M31.6666 19.6426C30.9672 19.1078 29.6501 18.6343 29.6501 18.6343C29.6501 18.6343 29.8629 18.3464 30.0534 18.231C30.7469 17.811 31.8683 19.2393 31.8683 19.2393L31.6666 19.6426Z" fill="#646361" stroke="black" stroke-width="0.3"/>
<path d="M12.9129 19.5653C12.2136 20.1001 10.8964 20.5736 10.8964 20.5736C10.8964 20.5736 11.1092 20.8615 11.2997 20.9769C11.9932 21.3969 13.1146 19.9686 13.1146 19.9686L12.9129 19.5653Z" fill="#646361" stroke="black" stroke-width="0.3"/>
<path d="M21.8353 29.2981C18.9365 29.1369 17.2328 24.6234 17.6006 24.5592C18.4908 24.2879 19.2789 24.0899 20.0204 23.9642C21.4065 23.7294 22.6299 23.7473 24.0534 24.0117C24.7339 24.1381 25.4601 24.3208 26.2716 24.5592C26.6703 24.7699 24.8006 29.4629 21.8353 29.2981Z" fill="#CFCECC"/>
<path d="M20.0204 23.9642C19.2789 24.0899 18.4908 24.2879 17.6006 24.5592C17.2328 24.6234 18.9365 29.1369 21.8353 29.2981C24.8006 29.4629 26.6703 24.7699 26.2716 24.5592C25.4601 24.3208 24.7339 24.1381 24.0534 24.0117M20.0204 23.9642C19.8421 24.194 20.5972 25.7614 21.8353 25.87C22.0086 25.8852 22.1773 25.8701 22.3394 25.8317M20.0204 23.9642C21.4065 23.7294 22.6299 23.7473 24.0534 24.0117M24.0534 24.0117C24.2395 24.2252 23.4446 25.57 22.3394 25.8317M22.3394 25.8317C22.512 26.1961 22.6772 26.3649 23.146 26.5758M23.146 26.5758C23.5863 26.2839 23.8549 26.2121 24.3559 26.1725M23.146 26.5758C22.8974 26.8791 22.8297 27.0584 22.7427 27.3824" stroke="black" stroke-width="0.3"/>
<path d="M21.8116 25.87C20.5735 25.7614 19.8184 24.194 19.9967 23.9642C21.3828 23.7294 22.6062 23.7473 24.0298 24.0117C24.2158 24.2252 23.4209 25.57 22.3157 25.8317C22.1536 25.8701 21.9849 25.8852 21.8116 25.87Z" fill="#B661A4" stroke="black" stroke-width="0.3"/>
<path d="M12.308 29.8495C10.3228 29.7799 8.77759 28.5684 8.3758 26.6231C7.90266 24.3324 9.58867 22.111 11.9047 21.7834C14.2368 21.4536 16.4823 23.1643 16.6435 25.514C16.8075 27.9028 14.701 29.9335 12.308 29.8495Z" fill="white" stroke="black" stroke-width="0.3"/>
<circle cx="13.6188" cy="26.9256" r="1.9157" fill="black"/>
<path d="M31.2423 28.882C29.2572 28.8123 27.7119 27.6009 27.3101 25.6556C26.837 23.3648 28.523 21.1435 30.839 20.8159C33.1711 20.4861 35.4166 22.1967 35.5779 24.5465C35.7418 26.9353 33.6353 28.966 31.2423 28.882Z" fill="white" stroke="black" stroke-width="0.3"/>
<circle cx="30.1542" cy="26.3206" r="1.9157" fill="black"/>
<path fill-rule="evenodd" clip-rule="evenodd" d="M13 13.1416C13.1415 14.2766 13.2656 14.8611 13.587 15.8009C14.0338 15.9997 14.3622 16.0797 15.1522 15.8994C17.404 15.3852 20.8261 14.225 20.8261 14.225C21.7468 13.7911 21.9547 13.6222 21.6087 13.5581C21.5561 13.5483 21.4907 13.541 21.413 13.5356C19.3582 13.6915 17.9126 13.9374 16.3468 14.5205L16.5217 13.831C16.5217 13.831 15.9089 13.0102 16.0326 12.4521C16.268 11.3898 17.496 11.1796 18.9023 10.945C19.3383 10.8675 19.7919 10.7868 20.2391 10.6793L20.0435 10.2853C18.7842 10.1447 17.7816 10.1423 16.913 10.3246C16.7678 10.0142 16.6249 9.90701 16.0326 10.0883C15.5459 10.2545 15.614 10.4218 15.7391 10.7212C14.7882 11.1806 13.9527 11.9578 13 13.1416Z" fill="#9B2706"/>
<path d="M13.587 15.8009C16.5277 14.2295 18.2474 13.7758 21.413 13.5356M13.587 15.8009C13.2656 14.8611 13.1415 14.2766 13 13.1416C13.9527 11.9578 14.7882 11.1806 15.7391 10.7212M13.587 15.8009C14.0338 15.9997 14.3622 16.0797 15.1522 15.8994C17.404 15.3852 20.8261 14.225 20.8261 14.225C21.7468 13.7911 21.9547 13.6222 21.6087 13.5581M21.413 13.5356C21.4907 13.541 21.5561 13.5483 21.6087 13.5581M21.413 13.5356C19.3582 13.6915 17.9126 13.9374 16.3468 14.5205L16.5217 13.831C16.5217 13.831 15.9089 13.0102 16.0326 12.4521C16.268 11.3898 17.496 11.1796 18.9023 10.945C19.3383 10.8675 19.7919 10.7868 20.2391 10.6793M20.2391 10.6793L20.0435 10.2853C18.7842 10.1447 17.7816 10.1423 16.913 10.3246M20.2391 10.6793C20.7426 10.6757 20.9782 10.7443 21.3152 10.9748C21.6949 11.3256 21.8814 11.5748 22 12.4521C21.9926 12.952 21.8912 13.1885 21.6087 13.5581M15.7391 10.7212C15.614 10.4218 15.5459 10.2545 16.0326 10.0883C16.6249 9.90701 16.7678 10.0142 16.913 10.3246M15.7391 10.7212C16.1085 10.5428 16.4952 10.4123 16.913 10.3246" stroke="black" stroke-width="0.3"/>
</svg>
