<svg width="160" height="39" viewBox="0 0 160 39" fill="none" xmlns="http://www.w3.org/2000/svg">
<rect x="0.25" y="0.25" width="159.5" height="38.5" rx="19.25" fill="white" stroke="#B1B1B3" stroke-width="0.5"/>
<path d="M16.7802 23.0801H21.661V24H15.4501V23.1562L20.1259 16.3945H15.5262V15.4688H21.4735V16.2949L16.7802 23.0801ZM26.8641 24C26.8016 23.875 26.7509 23.6523 26.7118 23.332C26.2079 23.8555 25.6063 24.1172 24.9071 24.1172C24.2821 24.1172 23.7684 23.9414 23.3661 23.5898C22.9677 23.2344 22.7684 22.7852 22.7684 22.2422C22.7684 21.582 23.0184 21.0703 23.5184 20.707C24.0223 20.3398 24.7294 20.1562 25.6395 20.1562H26.6942V19.6582C26.6942 19.2793 26.5809 18.9785 26.3544 18.7559C26.1278 18.5293 25.7938 18.416 25.3524 18.416C24.9657 18.416 24.6415 18.5137 24.3798 18.709C24.118 18.9043 23.9872 19.1406 23.9872 19.418H22.8973C22.8973 19.1016 23.0087 18.7969 23.2313 18.5039C23.4579 18.207 23.7626 17.9727 24.1454 17.8008C24.5321 17.6289 24.9559 17.543 25.4169 17.543C26.1473 17.543 26.7196 17.7266 27.1337 18.0938C27.5477 18.457 27.7626 18.959 27.7782 19.5996V22.5176C27.7782 23.0996 27.8524 23.5625 28.0009 23.9062V24H26.8641ZM25.0653 23.1738C25.4052 23.1738 25.7274 23.0859 26.0321 22.9102C26.3368 22.7344 26.5575 22.5059 26.6942 22.2246V20.9238H25.8446C24.5165 20.9238 23.8524 21.3125 23.8524 22.0898C23.8524 22.4297 23.9657 22.6953 24.1923 22.8867C24.4188 23.0781 24.7098 23.1738 25.0653 23.1738ZM30.7899 18.9082L31.7157 18.5508V19.2715L30.7899 19.6289V24H29.7001V20.0449L28.8563 20.3672V19.6465L29.7001 19.3242V15H30.7899V18.9082ZM36.6376 24C36.5751 23.875 36.5243 23.6523 36.4852 23.332C35.9813 23.8555 35.3798 24.1172 34.6805 24.1172C34.0555 24.1172 33.5419 23.9414 33.1395 23.5898C32.7411 23.2344 32.5419 22.7852 32.5419 22.2422C32.5419 21.582 32.7919 21.0703 33.2919 20.707C33.7958 20.3398 34.5028 20.1562 35.413 20.1562H36.4677V19.6582C36.4677 19.2793 36.3544 18.9785 36.1278 18.7559C35.9012 18.5293 35.5673 18.416 35.1259 18.416C34.7391 18.416 34.4149 18.5137 34.1532 18.709C33.8915 18.9043 33.7606 19.1406 33.7606 19.418H32.6708C32.6708 19.1016 32.7821 18.7969 33.0048 18.5039C33.2313 18.207 33.536 17.9727 33.9188 17.8008C34.3055 17.6289 34.7294 17.543 35.1903 17.543C35.9208 17.543 36.493 17.7266 36.9071 18.0938C37.3212 18.457 37.536 18.959 37.5516 19.5996V22.5176C37.5516 23.0996 37.6259 23.5625 37.7743 23.9062V24H36.6376ZM34.8387 23.1738C35.1786 23.1738 35.5009 23.0859 35.8055 22.9102C36.1102 22.7344 36.3309 22.5059 36.4677 22.2246V20.9238H35.618C34.2899 20.9238 33.6259 21.3125 33.6259 22.0898C33.6259 22.4297 33.7391 22.6953 33.9657 22.8867C34.1923 23.0781 34.4833 23.1738 34.8387 23.1738ZM38.9872 20.7773C38.9872 19.8047 39.2177 19.0234 39.6786 18.4336C40.1395 17.8398 40.743 17.543 41.4891 17.543C42.2313 17.543 42.8192 17.7969 43.2528 18.3047V15H44.3368V24H43.3407L43.288 23.3203C42.8544 23.8516 42.2509 24.1172 41.4774 24.1172C40.743 24.1172 40.1434 23.8164 39.6786 23.2148C39.2177 22.6133 38.9872 21.8281 38.9872 20.8594V20.7773ZM40.0712 20.9004C40.0712 21.6191 40.2196 22.1816 40.5165 22.5879C40.8134 22.9941 41.2235 23.1973 41.7469 23.1973C42.4344 23.1973 42.9364 22.8887 43.2528 22.2715V19.3594C42.9286 18.7617 42.4305 18.4629 41.7587 18.4629C41.2274 18.4629 40.8134 18.668 40.5165 19.0781C40.2196 19.4883 40.0712 20.0957 40.0712 20.9004ZM49.9384 23.373C49.5165 23.8691 48.8973 24.1172 48.0809 24.1172C47.4052 24.1172 46.8895 23.9219 46.5341 23.5312C46.1825 23.1367 46.0048 22.5547 46.0009 21.7852V17.6602H47.0848V21.7559C47.0848 22.7168 47.4755 23.1973 48.2567 23.1973C49.0848 23.1973 49.6356 22.8887 49.9091 22.2715V17.6602H50.993V24H49.9618L49.9384 23.373ZM53.7645 17.6602V24.7324C53.7645 25.9512 53.2118 26.5605 52.1063 26.5605C51.868 26.5605 51.6473 26.5254 51.4442 26.4551V25.5879C51.5692 25.6191 51.7333 25.6348 51.9364 25.6348C52.1786 25.6348 52.3622 25.5684 52.4872 25.4355C52.6161 25.3066 52.6805 25.0801 52.6805 24.7559V17.6602H53.7645ZM52.5692 15.9785C52.5692 15.8066 52.6219 15.6602 52.7274 15.5391C52.8368 15.4141 52.995 15.3516 53.202 15.3516C53.413 15.3516 53.5731 15.4121 53.6825 15.5332C53.7919 15.6543 53.8466 15.8027 53.8466 15.9785C53.8466 16.1543 53.7919 16.3008 53.6825 16.418C53.5731 16.5352 53.413 16.5938 53.202 16.5938C52.9911 16.5938 52.8329 16.5352 52.7274 16.418C52.6219 16.3008 52.5692 16.1543 52.5692 15.9785ZM58.2059 20.7715C58.2059 20.1504 58.327 19.5918 58.5692 19.0957C58.8153 18.5996 59.1552 18.2168 59.5887 17.9473C60.0262 17.6777 60.5243 17.543 61.0829 17.543C61.9462 17.543 62.6434 17.8418 63.1747 18.4395C63.7098 19.0371 63.9774 19.832 63.9774 20.8242V20.9004C63.9774 21.5176 63.8583 22.0723 63.62 22.5645C63.3856 23.0527 63.0477 23.4336 62.6063 23.707C62.1688 23.9805 61.6649 24.1172 61.0946 24.1172C60.2352 24.1172 59.538 23.8184 59.0028 23.2207C58.4716 22.623 58.2059 21.832 58.2059 20.8477V20.7715ZM59.2958 20.9004C59.2958 21.6035 59.4579 22.168 59.7821 22.5938C60.1102 23.0195 60.5477 23.2324 61.0946 23.2324C61.6454 23.2324 62.0829 23.0176 62.4071 22.5879C62.7313 22.1543 62.8934 21.5488 62.8934 20.7715C62.8934 20.0762 62.7274 19.5137 62.3954 19.084C62.0673 18.6504 61.6298 18.4336 61.0829 18.4336C60.5477 18.4336 60.1161 18.6465 59.788 19.0723C59.4598 19.498 59.2958 20.1074 59.2958 20.9004ZM70.704 20.9004C70.704 21.8691 70.4813 22.6484 70.036 23.2383C69.5907 23.8242 68.993 24.1172 68.243 24.1172C67.4423 24.1172 66.8231 23.834 66.3856 23.2676L66.3329 24H65.3368V15H66.4208V18.3574C66.8583 17.8145 67.4618 17.543 68.2313 17.543C69.0009 17.543 69.6044 17.834 70.0419 18.416C70.4833 18.998 70.704 19.7949 70.704 20.8066V20.9004ZM69.62 20.7773C69.62 20.0391 69.4774 19.4688 69.1923 19.0664C68.9071 18.6641 68.4969 18.4629 67.9618 18.4629C67.2469 18.4629 66.7333 18.7949 66.4208 19.459V22.2012C66.7528 22.8652 67.2704 23.1973 67.9735 23.1973C68.493 23.1973 68.8973 22.9961 69.1864 22.5938C69.4755 22.1914 69.62 21.5859 69.62 20.7773ZM75.1395 18.6328C74.9755 18.6055 74.7977 18.5918 74.6063 18.5918C73.8954 18.5918 73.413 18.8945 73.1591 19.5V24H72.0751V17.6602H73.1298L73.1473 18.3926C73.5028 17.8262 74.0067 17.543 74.6591 17.543C74.87 17.543 75.0302 17.5703 75.1395 17.625V18.6328ZM79.8212 24C79.7587 23.875 79.7079 23.6523 79.6688 23.332C79.1649 23.8555 78.5634 24.1172 77.8641 24.1172C77.2391 24.1172 76.7255 23.9414 76.3231 23.5898C75.9247 23.2344 75.7255 22.7852 75.7255 22.2422C75.7255 21.582 75.9755 21.0703 76.4755 20.707C76.9794 20.3398 77.6864 20.1562 78.5966 20.1562H79.6512V19.6582C79.6512 19.2793 79.538 18.9785 79.3114 18.7559C79.0848 18.5293 78.7509 18.416 78.3094 18.416C77.9227 18.416 77.5985 18.5137 77.3368 18.709C77.0751 18.9043 76.9442 19.1406 76.9442 19.418H75.8544C75.8544 19.1016 75.9657 18.7969 76.1884 18.5039C76.4149 18.207 76.7196 17.9727 77.1024 17.8008C77.4891 17.6289 77.913 17.543 78.3739 17.543C79.1044 17.543 79.6766 17.7266 80.0907 18.0938C80.5048 18.457 80.7196 18.959 80.7352 19.5996V22.5176C80.7352 23.0996 80.8094 23.5625 80.9579 23.9062V24H79.8212ZM78.0223 23.1738C78.3622 23.1738 78.6844 23.0859 78.9891 22.9102C79.2938 22.7344 79.5145 22.5059 79.6512 22.2246V20.9238H78.8016C77.4735 20.9238 76.8094 21.3125 76.8094 22.0898C76.8094 22.4297 76.9227 22.6953 77.1493 22.8867C77.3759 23.0781 77.6669 23.1738 78.0223 23.1738ZM83.454 23.1152H87.163V24H82.1298V23.2031L85.6278 18.5566H82.1825V17.6602H86.9872V18.4277L83.454 23.1152ZM90.9247 24.1172C90.0653 24.1172 89.3661 23.8359 88.827 23.2734C88.288 22.707 88.0184 21.9512 88.0184 21.0059V20.8066C88.0184 20.1777 88.1376 19.6172 88.3759 19.125C88.618 18.6289 88.954 18.2422 89.3837 17.9648C89.8173 17.6836 90.286 17.543 90.7899 17.543C91.6141 17.543 92.2548 17.8145 92.7118 18.3574C93.1688 18.9004 93.3973 19.6777 93.3973 20.6895V21.1406H89.1024C89.118 21.7656 89.2997 22.2715 89.6473 22.6582C89.9989 23.041 90.4442 23.2324 90.9833 23.2324C91.3661 23.2324 91.6903 23.1543 91.9559 22.998C92.2216 22.8418 92.454 22.6348 92.6532 22.377L93.3153 22.8926C92.7841 23.709 91.9872 24.1172 90.9247 24.1172ZM90.7899 18.4336C90.3524 18.4336 89.9852 18.5938 89.6884 18.9141C89.3915 19.2305 89.2079 19.6758 89.1376 20.25H92.3134V20.168C92.2821 19.6172 92.1337 19.1914 91.868 18.8906C91.6024 18.5859 91.243 18.4336 90.7899 18.4336ZM96.4266 21.0645L95.7469 21.7734V24H94.663V15H95.7469V20.4434L96.327 19.7461L98.3016 17.6602H99.62L97.1532 20.3086L99.9071 24H98.6356L96.4266 21.0645Z" fill="#272727"/>
<circle cx="140.5" cy="19.5" r="19.5" fill="#FFC045"/>
</svg>
