<svg width="160" height="39" viewBox="0 0 160 39" fill="none" xmlns="http://www.w3.org/2000/svg">
<rect x="0.25" y="0.25" width="159.5" height="38.5" rx="19.25" fill="white" stroke="#B1B1B3" stroke-width="0.5"/>
<path d="M16.7802 23.0801H21.661V24H15.4501V23.1562L20.1259 16.3945H15.5262V15.4688H21.4735V16.2949L16.7802 23.0801ZM26.8641 24C26.8016 23.875 26.7509 23.6523 26.7118 23.332C26.2079 23.8555 25.6063 24.1172 24.9071 24.1172C24.2821 24.1172 23.7684 23.9414 23.3661 23.5898C22.9677 23.2344 22.7684 22.7852 22.7684 22.2422C22.7684 21.582 23.0184 21.0703 23.5184 20.707C24.0223 20.3398 24.7294 20.1562 25.6395 20.1562H26.6942V19.6582C26.6942 19.2793 26.5809 18.9785 26.3544 18.7559C26.1278 18.5293 25.7938 18.416 25.3524 18.416C24.9657 18.416 24.6415 18.5137 24.3798 18.709C24.118 18.9043 23.9872 19.1406 23.9872 19.418H22.8973C22.8973 19.1016 23.0087 18.7969 23.2313 18.5039C23.4579 18.207 23.7626 17.9727 24.1454 17.8008C24.5321 17.6289 24.9559 17.543 25.4169 17.543C26.1473 17.543 26.7196 17.7266 27.1337 18.0938C27.5477 18.457 27.7626 18.959 27.7782 19.5996V22.5176C27.7782 23.0996 27.8524 23.5625 28.0009 23.9062V24H26.8641ZM25.0653 23.1738C25.4052 23.1738 25.7274 23.0859 26.0321 22.9102C26.3368 22.7344 26.5575 22.5059 26.6942 22.2246V20.9238H25.8446C24.5165 20.9238 23.8524 21.3125 23.8524 22.0898C23.8524 22.4297 23.9657 22.6953 24.1923 22.8867C24.4188 23.0781 24.7098 23.1738 25.0653 23.1738ZM30.7899 18.9082L31.7157 18.5508V19.2715L30.7899 19.6289V24H29.7001V20.0449L28.8563 20.3672V19.6465L29.7001 19.3242V15H30.7899V18.9082ZM36.6376 24C36.5751 23.875 36.5243 23.6523 36.4852 23.332C35.9813 23.8555 35.3798 24.1172 34.6805 24.1172C34.0555 24.1172 33.5419 23.9414 33.1395 23.5898C32.7411 23.2344 32.5419 22.7852 32.5419 22.2422C32.5419 21.582 32.7919 21.0703 33.2919 20.707C33.7958 20.3398 34.5028 20.1562 35.413 20.1562H36.4677V19.6582C36.4677 19.2793 36.3544 18.9785 36.1278 18.7559C35.9012 18.5293 35.5673 18.416 35.1259 18.416C34.7391 18.416 34.4149 18.5137 34.1532 18.709C33.8915 18.9043 33.7606 19.1406 33.7606 19.418H32.6708C32.6708 19.1016 32.7821 18.7969 33.0048 18.5039C33.2313 18.207 33.536 17.9727 33.9188 17.8008C34.3055 17.6289 34.7294 17.543 35.1903 17.543C35.9208 17.543 36.493 17.7266 36.9071 18.0938C37.3212 18.457 37.536 18.959 37.5516 19.5996V22.5176C37.5516 23.0996 37.6259 23.5625 37.7743 23.9062V24H36.6376ZM34.8387 23.1738C35.1786 23.1738 35.5009 23.0859 35.8055 22.9102C36.1102 22.7344 36.3309 22.5059 36.4677 22.2246V20.9238H35.618C34.2899 20.9238 33.6259 21.3125 33.6259 22.0898C33.6259 22.4297 33.7391 22.6953 33.9657 22.8867C34.1923 23.0781 34.4833 23.1738 34.8387 23.1738ZM38.9872 20.7773C38.9872 19.8047 39.2177 19.0234 39.6786 18.4336C40.1395 17.8398 40.743 17.543 41.4891 17.543C42.2313 17.543 42.8192 17.7969 43.2528 18.3047V15H44.3368V24H43.3407L43.288 23.3203C42.8544 23.8516 42.2509 24.1172 41.4774 24.1172C40.743 24.1172 40.1434 23.8164 39.6786 23.2148C39.2177 22.6133 38.9872 21.8281 38.9872 20.8594V20.7773ZM40.0712 20.9004C40.0712 21.6191 40.2196 22.1816 40.5165 22.5879C40.8134 22.9941 41.2235 23.1973 41.7469 23.1973C42.4344 23.1973 42.9364 22.8887 43.2528 22.2715V19.3594C42.9286 18.7617 42.4305 18.4629 41.7587 18.4629C41.2274 18.4629 40.8134 18.668 40.5165 19.0781C40.2196 19.4883 40.0712 20.0957 40.0712 20.9004ZM45.7372 20.7715C45.7372 20.1504 45.8583 19.5918 46.1005 19.0957C46.3466 18.5996 46.6864 18.2168 47.12 17.9473C47.5575 17.6777 48.0555 17.543 48.6141 17.543C49.4774 17.543 50.1747 17.8418 50.7059 18.4395C51.2411 19.0371 51.5087 19.832 51.5087 20.8242V20.9004C51.5087 21.5176 51.3895 22.0723 51.1512 22.5645C50.9169 23.0527 50.579 23.4336 50.1376 23.707C49.7001 23.9805 49.1962 24.1172 48.6259 24.1172C47.7665 24.1172 47.0692 23.8184 46.5341 23.2207C46.0028 22.623 45.7372 21.832 45.7372 20.8477V20.7715ZM46.827 20.9004C46.827 21.6035 46.9891 22.168 47.3134 22.5938C47.6415 23.0195 48.079 23.2324 48.6259 23.2324C49.1766 23.2324 49.6141 23.0176 49.9384 22.5879C50.2626 22.1543 50.4247 21.5488 50.4247 20.7715C50.4247 20.0762 50.2587 19.5137 49.9266 19.084C49.5985 18.6504 49.161 18.4336 48.6141 18.4336C48.079 18.4336 47.6473 18.6465 47.3192 19.0723C46.9911 19.498 46.827 20.1074 46.827 20.9004ZM58.4813 22.5059L59.7001 17.6602H60.7841L58.9384 24H58.0594L56.5184 19.1953L55.0184 24H54.1395L52.2997 17.6602H53.3778L54.6259 22.4062L56.1024 17.6602H56.9755L58.4813 22.5059ZM65.8055 24C65.743 23.875 65.6923 23.6523 65.6532 23.332C65.1493 23.8555 64.5477 24.1172 63.8485 24.1172C63.2235 24.1172 62.7098 23.9414 62.3075 23.5898C61.9091 23.2344 61.7098 22.7852 61.7098 22.2422C61.7098 21.582 61.9598 21.0703 62.4598 20.707C62.9637 20.3398 63.6708 20.1562 64.5809 20.1562H65.6356V19.6582C65.6356 19.2793 65.5223 18.9785 65.2958 18.7559C65.0692 18.5293 64.7352 18.416 64.2938 18.416C63.9071 18.416 63.5829 18.5137 63.3212 18.709C63.0594 18.9043 62.9286 19.1406 62.9286 19.418H61.8387C61.8387 19.1016 61.9501 18.7969 62.1727 18.5039C62.3993 18.207 62.704 17.9727 63.0868 17.8008C63.4735 17.6289 63.8973 17.543 64.3583 17.543C65.0887 17.543 65.661 17.7266 66.0751 18.0938C66.4891 18.457 66.704 18.959 66.7196 19.5996V22.5176C66.7196 23.0996 66.7938 23.5625 66.9423 23.9062V24H65.8055ZM64.0067 23.1738C64.3466 23.1738 64.6688 23.0859 64.9735 22.9102C65.2782 22.7344 65.4989 22.5059 65.6356 22.2246V20.9238H64.786C63.4579 20.9238 62.7938 21.3125 62.7938 22.0898C62.7938 22.4297 62.9071 22.6953 63.1337 22.8867C63.3602 23.0781 63.6512 23.1738 64.0067 23.1738ZM69.4442 17.6602L69.4794 18.457C69.9637 17.8477 70.5966 17.543 71.3778 17.543C72.7177 17.543 73.3934 18.2988 73.4052 19.8105V24H72.3212V19.8047C72.3173 19.3477 72.2118 19.0098 72.0048 18.791C71.8016 18.5723 71.4833 18.4629 71.0497 18.4629C70.6981 18.4629 70.3895 18.5566 70.1239 18.7441C69.8583 18.9316 69.6512 19.1777 69.5028 19.4824V24H68.4188V17.6602H69.4442ZM74.7528 20.7715C74.7528 20.1504 74.8739 19.5918 75.1161 19.0957C75.3622 18.5996 75.702 18.2168 76.1356 17.9473C76.5731 17.6777 77.0712 17.543 77.6298 17.543C78.493 17.543 79.1903 17.8418 79.7216 18.4395C80.2567 19.0371 80.5243 19.832 80.5243 20.8242V20.9004C80.5243 21.5176 80.4052 22.0723 80.1669 22.5645C79.9325 23.0527 79.5946 23.4336 79.1532 23.707C78.7157 23.9805 78.2118 24.1172 77.6415 24.1172C76.7821 24.1172 76.0848 23.8184 75.5497 23.2207C75.0184 22.623 74.7528 21.832 74.7528 20.8477V20.7715ZM75.8427 20.9004C75.8427 21.6035 76.0048 22.168 76.329 22.5938C76.6571 23.0195 77.0946 23.2324 77.6415 23.2324C78.1923 23.2324 78.6298 23.0176 78.954 22.5879C79.2782 22.1543 79.4403 21.5488 79.4403 20.7715C79.4403 20.0762 79.2743 19.5137 78.9423 19.084C78.6141 18.6504 78.1766 18.4336 77.6298 18.4336C77.0946 18.4336 76.663 18.6465 76.3348 19.0723C76.0067 19.498 75.8427 20.1074 75.8427 20.9004ZM83.0966 21.5918H82.118L82.0419 15.4688H83.1786L83.0966 21.5918ZM82.0009 23.4551C82.0009 23.2793 82.0536 23.1328 82.1591 23.0156C82.2684 22.8945 82.4286 22.834 82.6395 22.834C82.8505 22.834 83.0106 22.8945 83.12 23.0156C83.2294 23.1328 83.2841 23.2793 83.2841 23.4551C83.2841 23.6309 83.2294 23.7773 83.12 23.8945C83.0106 24.0078 82.8505 24.0645 82.6395 24.0645C82.4286 24.0645 82.2684 24.0078 82.1591 23.8945C82.0536 23.7773 82.0009 23.6309 82.0009 23.4551Z" fill="#272727"/>
<circle cx="140.5" cy="19.5" r="19.5" fill="#29C425"/>
<path d="M134 23L138.5 27.5L147.5 12" stroke="white" stroke-width="2"/>
</svg>
