<svg width="40" height="40" viewBox="0 0 40 40" fill="none" xmlns="http://www.w3.org/2000/svg">
<circle cx="20" cy="20" r="20" fill="white"/>
<path d="M11.75 23.2415C11.6084 21.2491 10.1308 19.6249 8.13338 19.6249C6.13597 19.6249 4.65832 21.2491 4.51672 23.2415C4.43235 24.4294 4.51672 26.3415 4.00006 27.3749C4.00006 27.3749 4.51672 28.4082 6.42215 28.9262L9.85505 28.9248C11.75 28.4082 12.2667 27.3749 12.2667 27.3749C11.75 26.3415 11.8344 24.4294 11.75 23.2415Z" fill="#694B4B"/>
<path d="M7.61672 23.2415C5.62563 22.246 6.03543 20.2955 7.45398 19.6918C5.80836 20.0129 4.64169 21.4828 4.51672 23.2415C4.43235 24.4294 4.51672 26.3415 4.00006 27.3749C4.00006 27.3749 4.51672 28.4082 6.42215 28.9262L8.05397 28.9256L7.61672 23.2415Z" fill="#5A4146"/>
<path d="M11.9265 30.1685L10.2545 29.3326C9.90441 29.1575 9.68327 28.7997 9.68327 28.4082L9.68334 26.8581H6.5834V28.4082C6.5834 28.7996 6.36226 29.1574 6.01222 29.3324L4.34017 30.1685C3.81507 30.431 3.4834 30.9677 3.4834 31.5548V35.1248H12.7833V31.5548C12.7833 30.9678 12.4517 30.4311 11.9265 30.1685Z" fill="#E6AF78"/>
<path d="M12.7833 31.5549C12.7833 30.9678 12.4516 30.4311 11.9265 30.1685L10.2545 29.3326C10.1583 29.2845 10.0745 29.2203 9.99973 29.1478L9.40677 29.8078C8.70642 30.5873 7.56038 30.5872 6.86003 29.8078L6.267 29.1477C6.19217 29.2203 6.10838 29.2844 6.01228 29.3325L4.34017 30.1685C3.81514 30.431 3.48346 30.9677 3.48346 31.5548V35.1248H12.7834L12.7833 31.5549Z" fill="#D5DCED"/>
<path d="M8.13338 27.8915C6.94931 27.8915 5.92025 27.2276 5.39818 26.2518C5.0433 25.5885 5.27469 24.7563 5.88976 24.3231C6.00778 24.24 6.12972 24.1452 6.24967 24.0381C6.61911 23.7084 6.83548 23.3608 6.95743 23.106C7.06191 22.8878 7.30264 22.7645 7.53712 22.8243C9.36134 23.2891 10.6019 24.2392 11.049 24.6241C11.1678 24.7263 11.2361 24.8769 11.2241 25.0332C11.1008 26.6324 9.76417 27.8915 8.13338 27.8915Z" fill="#F0C087"/>
<path d="M11.0484 24.6235C10.601 24.2384 9.3614 23.2896 7.53912 22.8247C7.30348 22.7646 7.06171 22.8886 6.95659 23.1079C6.8641 23.3006 6.71128 23.5463 6.48447 23.7971C6.48441 23.7976 6.48428 23.7982 6.48421 23.7988C6.41383 23.8786 6.33887 23.9585 6.24973 24.0381C6.13468 24.1407 6.01893 24.2336 5.90446 24.3128C5.1753 24.8172 5.06579 25.7424 5.51265 26.4452C5.98277 27.1845 6.7593 27.7098 7.66338 27.848C7.04483 27.4272 6.58341 26.8567 6.58341 25.825V25.4257C6.70078 25.3391 6.81892 25.2527 6.93771 25.1467C7.22484 24.8904 7.47557 24.5941 7.6766 24.275C9.06827 24.7093 10.0117 25.4326 10.3694 25.7401C10.4673 25.826 10.6046 25.9473 10.8889 26.214C11.0712 25.9263 11.1985 25.3661 11.2241 25.0326C11.2361 24.8764 11.167 24.7256 11.0484 24.6235Z" fill="#E6AF78"/>
<path d="M3.79838 30.6235C3.59935 30.8876 3.4834 31.2117 3.4834 31.5548V35.1248H5.55009V32.5214C5.55009 32.2076 5.40739 31.9106 5.16227 31.7146L3.79838 30.6235Z" fill="#C7CFE2"/>
<path d="M12.4684 30.6235C12.6675 30.8876 12.7834 31.2117 12.7834 31.5548V35.1248H10.7167V32.5214C10.7167 32.2076 10.8594 31.9106 11.1046 31.7146L12.4684 30.6235Z" fill="#C7CFE2"/>
<path d="M26.7333 21.6916V22.0542C26.7333 22.4985 26.8049 22.9398 26.9455 23.3612L27.7666 25.8249H29.3166V20.1416H28.2833C27.4273 20.1415 26.7333 20.8355 26.7333 21.6916Z" fill="#5A4146"/>
<path d="M33.8473 22.6257L32.9332 25.8249L28.7999 22.2082C28.2292 22.2082 27.7666 21.7456 27.7666 21.1749C27.7666 20.3189 28.4606 19.625 29.3166 19.625H33.9665V21.7741C33.9666 22.0621 33.9265 22.3487 33.8473 22.6257Z" fill="#694B4B"/>
<path d="M31.9001 27.3748H28.7999V30.475H31.9001V27.3748Z" fill="#E6AF78"/>
<path d="M34.3924 29.3404L31.8998 28.6282L30.35 30.4748L28.8 28.6282L26.3075 29.3404C25.6421 29.5305 25.1833 30.1387 25.1833 30.8307V35.1248H35.5166V30.8308C35.5166 30.1387 35.0578 29.5305 34.3924 29.3404Z" fill="#D5DCED"/>
<path d="M30.35 27.8915C28.6379 27.8915 27.25 26.5036 27.25 24.7915C27.25 24.1299 27.5128 23.4954 27.9806 23.0275L28.4895 22.5186C28.6879 22.3203 28.9592 22.2062 29.2395 22.215C30.8911 22.2671 32.3531 22.6209 33.1522 23.4014C33.3478 23.5924 33.4499 23.8597 33.4499 24.1331V24.7914C33.45 26.5036 32.0621 27.8915 30.35 27.8915Z" fill="#F0C087"/>
<path d="M28.8 24.7915C28.8 24.1955 29.3005 23.7218 29.8953 23.7597C30.9383 23.8262 32.486 24.0005 33.4356 24.4573C33.4046 24.2393 33.3109 23.5565 33.1522 23.4014C32.3531 22.6209 30.8912 22.2671 29.2395 22.215H29.2395C28.9591 22.2062 28.6878 22.3203 28.4894 22.5186L27.9806 23.0275C27.5127 23.4954 27.2499 24.1298 27.2499 24.7915C27.2499 26.2052 28.1972 27.3955 29.491 27.7683C29.0604 27.2369 28.7999 26.5626 28.7999 25.8248V24.7915H28.8Z" fill="#E6AF78"/>
<path d="M33.4499 32.3702C33.4499 31.9591 33.6132 31.5649 33.9039 31.2742L35.2339 29.9442C35.4117 30.1983 35.5166 30.5042 35.5166 30.8307V35.1248H33.4499V32.3702Z" fill="#C7CFE2"/>
<path d="M26.9229 29.4635L22.6 27.8915L19.5 28.9248L16.4 27.8915L12.0771 29.4635C11.2604 29.7605 10.7167 30.5367 10.7167 31.4057V35.1248H28.2833V31.4057C28.2833 30.5367 27.7396 29.7605 26.9229 29.4635Z" fill="#FF507D"/>
<path d="M27.7272 29.9977C28.0761 30.3721 28.2833 30.8708 28.2833 31.4058V35.1249H25.1833V33.3976C25.1833 32.8495 25.401 32.3238 25.7886 31.9363L27.7272 29.9977Z" fill="#D23C69"/>
<path d="M25.1833 17.2364V12.9082C25.1833 12.3376 24.7206 11.8749 24.15 11.8749H17.95C15.6672 11.8749 13.8167 13.7255 13.8167 16.0082V17.2364C13.8167 17.7918 13.9062 18.3434 14.0818 18.8703L14.2538 19.3862C14.3064 19.5442 14.3333 19.7098 14.3333 19.8764V20.1415H24.6666V19.8764C24.6666 19.7098 24.6935 19.5442 24.7462 19.3862L24.9181 18.8703C25.0938 18.3435 25.1833 17.7918 25.1833 17.2364Z" fill="#5A4146"/>
<path d="M16.4 13.9739C16.4 15.1331 17.3397 16.0729 18.4989 16.0729H18.7896L18.9299 20.1416H24.6667V19.8764C24.6667 19.7098 24.6935 19.5444 24.7462 19.3863L24.9182 18.8703C25.0938 18.3435 25.1833 17.7918 25.1833 17.2365V12.9082C25.1833 12.3375 24.7207 11.8749 24.15 11.8749H18.499C17.3397 11.8749 16.4 12.8146 16.4 13.9739Z" fill="#694B4B"/>
<path d="M22.5995 24.2746H16.3998V28.9242H22.5995V24.2746Z" fill="#E6AF78"/>
<path d="M16.4 26.6132C17.328 27.0973 18.3809 27.3749 19.5 27.3749C20.6191 27.3749 21.672 27.0973 22.6 26.6132V24.2749H16.4V26.6132Z" fill="#D29B6E"/>
<path d="M19.5 28.9248L17.8522 30.5726C17.6307 30.7941 17.2647 30.7692 17.0753 30.5197L15.3667 28.2684L15.8136 27.3266C15.9455 27.0487 16.2895 26.9468 16.5514 27.1082L19.5 28.9248Z" fill="#D23C69"/>
<path d="M19.5 28.9248L21.1478 30.5726C21.3693 30.7941 21.7354 30.7692 21.9247 30.5197L23.6333 28.2684L23.1864 27.3266C23.0545 27.0487 22.7105 26.9468 22.4486 27.1082L19.5 28.9248Z" fill="#D23C69"/>
<path d="M19.5 25.8249C16.6465 25.8249 14.3334 23.5117 14.3334 20.6583V20.1416L15.1932 19.5684C15.6244 19.281 15.8834 18.797 15.8834 18.2787V16.5249C15.8834 16.5249 20.0168 14.9749 23.1167 17.5583C23.1167 17.5583 23.1167 17.9101 23.1167 18.2785C23.1167 18.7967 23.3757 19.2809 23.8069 19.5684L24.6667 20.1416V20.6583C24.6666 23.5117 22.3535 25.8249 19.5 25.8249Z" fill="#F0C087"/>
<path d="M11.2728 29.9977C10.924 30.3721 10.7167 30.8708 10.7167 31.4058V35.1249H13.8167V33.3976C13.8167 32.8495 13.599 32.3238 13.2115 31.9363L11.2728 29.9977Z" fill="#D23C69"/>
<path d="M18.3422 17.7668C19.4656 17.6259 21.4322 17.545 23.1167 18.2784C23.1167 18.0712 23.1167 17.5583 23.1167 17.5583C20.0167 14.9749 15.8833 16.5249 15.8833 16.5249V18.2787C15.8833 18.7969 15.6244 19.2808 15.1931 19.5684L14.3334 20.1415V20.6582C14.3334 23.2999 16.3172 25.4746 18.8756 25.7835H18.8758C17.9842 24.8551 17.4334 23.597 17.4334 22.2082V18.7931C17.4333 18.2695 17.8227 17.8319 18.3422 17.7668Z" fill="#E6AF78"/>
<path d="M31.6824 23.1569C31.7518 23.1917 31.8256 23.208 31.8982 23.208C32.0755 23.208 32.2463 23.1101 32.3309 22.9407C32.4504 22.7019 32.3536 22.4116 32.1148 22.2921C30.9919 21.7308 28.8865 21.7243 28.7974 21.7243C28.5305 21.7243 28.314 21.9407 28.314 22.2076C28.314 22.4746 28.5305 22.691 28.7974 22.691C29.3407 22.6911 30.9181 22.7748 31.6824 23.1569Z" fill="black"/>
<path d="M34.5248 29.1745L32.5284 28.6041C32.4422 28.5795 32.382 28.4997 32.382 28.41V27.7437C32.5444 27.6311 32.6994 27.5052 32.8442 27.3646C33.5461 26.6835 33.9326 25.7698 33.9326 24.792V23.8724L34.1256 23.4864C34.3375 23.0626 34.4495 22.5882 34.4495 22.1144V19.6233C34.4495 19.3564 34.233 19.1399 33.9661 19.1399H29.3143C27.6228 19.1399 26.2466 20.5161 26.2466 22.2076V22.2365C26.2466 22.6304 26.3397 23.0249 26.5159 23.3772L26.7634 23.8723V24.6619C26.7634 25.9132 27.38 27.0359 28.314 27.7115L28.3142 28.4099C28.3142 28.5176 28.3142 28.5622 27.915 28.6763L26.9409 28.9546L24.1229 27.9299C24.133 27.797 24.0882 27.6617 23.9912 27.5598L23.0907 26.6138V25.0257C23.1859 24.9472 23.2797 24.8667 23.3707 24.7815C24.5067 23.7167 25.1581 22.2134 25.1581 20.657V19.3887C25.5012 18.6423 25.675 17.8524 25.675 17.039V11.8705C25.675 11.6035 25.4586 11.3871 25.1916 11.3871H17.9555C15.409 11.3871 13.3373 13.4588 13.3373 16.0053V17.0391C13.3373 17.8525 13.5111 18.6424 13.8541 19.3889V20.4801C13.8541 22.2871 14.6576 23.9151 15.9216 24.9883V26.6139L15.0211 27.5599C14.9241 27.6618 14.8792 27.797 14.8893 27.93L11.9152 29.0114C11.6996 29.0898 11.4994 29.196 11.3175 29.3246L10.8505 29.091C12.2408 28.4859 12.6812 27.6348 12.7023 27.5925C12.7704 27.4565 12.7704 27.2962 12.7023 27.1602C12.3538 26.4632 12.3116 25.1856 12.2777 24.1592C12.2664 23.8174 12.2557 23.4946 12.2353 23.2071C12.0705 20.8885 10.3078 19.1399 8.13511 19.1399C5.96239 19.1399 4.19967 20.8884 4.03492 23.2071C4.01449 23.4946 4.00379 23.8175 3.99251 24.1593C3.95861 25.1857 3.91633 26.4631 3.5679 27.1601C3.49983 27.2962 3.49983 27.4564 3.5679 27.5924C3.58904 27.6347 4.02854 28.4841 5.42157 29.09L4.12432 29.7385C3.4308 30.0855 3 30.7826 3 31.5579V35.1292C3 35.3962 3.21643 35.6126 3.4834 35.6126C3.75036 35.6126 3.9668 35.3962 3.9668 35.1292V31.5579C3.9668 31.1511 4.19283 30.7853 4.55667 30.6034L6.17206 29.7957L6.73396 30.3297C7.12687 30.7031 7.63089 30.8897 8.13511 30.8897C8.6392 30.8897 9.14348 30.703 9.53626 30.3297L10.0981 29.7958L10.6248 30.0591C10.3768 30.456 10.236 30.9213 10.236 31.4088V35.1293C10.236 35.3963 10.4525 35.6127 10.7194 35.6127C10.9864 35.6127 11.2028 35.3963 11.2028 35.1293V31.4088C11.2028 30.7452 11.6218 30.1469 12.2455 29.9201L15.3813 28.7799L16.6867 30.738C16.8536 30.9884 17.121 31.1489 17.4204 31.1786C17.4537 31.1818 17.4869 31.1835 17.5201 31.1835C17.7842 31.1835 18.0372 31.0795 18.2263 30.8905L19.0227 30.0941V35.1294C19.0227 35.3964 19.2391 35.6128 19.5061 35.6128C19.773 35.6128 19.9895 35.3964 19.9895 35.1294V30.0941L20.7858 30.8905C20.9749 31.0796 21.2279 31.1835 21.4921 31.1835C21.5251 31.1835 21.5584 31.1819 21.5917 31.1786C21.8911 31.149 22.1586 30.9884 22.3254 30.7381L23.6309 28.78L26.7666 29.9202C27.3902 30.147 27.8093 30.7453 27.8093 31.4089V35.1295C27.8093 35.3964 28.0257 35.6129 28.2927 35.6129C28.5597 35.6129 28.7761 35.3964 28.7761 35.1295V31.4089C28.7761 30.7368 28.5091 30.1064 28.0611 29.6403L28.1805 29.6062C28.301 29.5717 28.4654 29.5246 28.6304 29.4437L29.8646 30.6779V35.1295C29.8646 35.3964 30.081 35.6129 30.348 35.6129C30.6149 35.6129 30.8314 35.3964 30.8314 35.1295V30.6779L32.057 29.4523C32.1222 29.4854 32.1906 29.5134 32.2627 29.534L34.2592 30.1044C34.7149 30.2346 35.0332 30.6566 35.0332 31.1305V35.1295C35.0332 35.3964 35.2496 35.6129 35.5166 35.6129C35.7836 35.6129 36 35.3964 36 35.1295V31.1305C36 30.227 35.3934 29.4227 34.5248 29.1745ZM10.1691 28.3223L10.1691 27.7458C10.7315 27.3586 11.1786 26.814 11.4454 26.17C11.5033 26.5862 11.5888 26.9805 11.7206 27.3248C11.5281 27.5594 11.0724 27.9971 10.1691 28.3223ZM4.99934 23.2757C5.06108 22.4071 5.40816 21.6068 5.97664 21.0219C6.55021 20.4318 7.31681 20.1068 8.13524 20.1068C8.95366 20.1068 9.72021 20.4318 10.2938 21.0219C10.8623 21.6068 11.2094 22.4071 11.2711 23.2757C11.2902 23.5449 11.3007 23.8588 11.3116 24.1911C11.3126 24.2197 11.3136 24.2486 11.3145 24.2774C10.7886 23.4671 9.97634 22.8699 8.92685 22.5327C7.95728 22.2212 7.12339 22.2405 7.0882 22.2414C6.96161 22.2449 6.84147 22.2979 6.75362 22.389L5.88144 23.2936C5.69614 23.4858 5.70168 23.7918 5.89388 23.9771C6.08608 24.1624 6.3921 24.1568 6.57741 23.9646L7.30315 23.212C7.92815 23.2426 9.93889 23.4764 10.7209 25.1984C10.5241 26.4674 9.43345 27.4098 8.13537 27.4098C6.69188 27.4098 5.5176 26.2355 5.5176 24.792C5.5176 24.5251 5.30117 24.3086 5.03421 24.3086C5.00713 24.3086 4.98071 24.3114 4.95486 24.3157C4.95628 24.2741 4.95763 24.2325 4.95905 24.1913C4.96982 23.8589 4.98019 23.545 4.99934 23.2757ZM4.54978 27.3247C4.68178 26.9796 4.76737 26.5844 4.82531 26.1672C5.09189 26.8064 5.53836 27.352 6.10116 27.7413V28.3207C5.19695 27.9953 4.74339 27.5616 4.54978 27.3247ZM7.40002 29.6289L6.95046 29.2017C7.02632 29.0596 7.06802 28.8985 7.06802 28.7297V28.2144C7.40524 28.3198 7.76373 28.3766 8.13524 28.3766C8.5063 28.3766 8.86459 28.3195 9.20239 28.2147L9.20232 28.7296C9.20232 28.8985 9.24396 29.0597 9.31989 29.2018L8.87039 29.629C8.45808 30.0207 7.8122 30.0207 7.40002 29.6289ZM14.8209 20.48V19.2807C14.8209 19.2079 14.8045 19.1361 14.7728 19.0705C14.4618 18.4264 14.304 17.7429 14.304 17.0391V16.0053C14.304 13.9919 15.9421 12.3539 17.9555 12.3539H24.7082V17.0391C24.7082 17.7429 24.5505 18.4264 24.2394 19.0705C24.2078 19.1361 24.1913 19.2079 24.1913 19.2807V20.6571C24.1913 21.9662 23.6651 23.1804 22.7095 24.0761C22.5902 24.1879 22.4664 24.2927 22.3384 24.3904C22.3356 24.3923 22.3328 24.3944 22.3301 24.3964C21.4349 25.0761 20.3384 25.4064 19.1933 25.3322C16.7415 25.1735 14.8209 23.0421 14.8209 20.48ZM19.1307 26.2969C19.2582 26.3052 19.3848 26.3093 19.5111 26.3093C20.4354 26.3093 21.325 26.0883 22.1239 25.6689V26.5519L19.5061 28.3413L16.8884 26.5519V25.6496C17.5657 26.0157 18.3241 26.2447 19.1307 26.2969ZM17.5427 30.2067C17.5393 30.2101 17.5315 30.218 17.5157 30.2163C17.5 30.2148 17.4938 30.2056 17.4912 30.2016L15.9878 27.9465L16.4716 27.4381L18.7523 28.9971L17.5427 30.2067ZM21.5211 30.2016C21.5184 30.2056 21.5122 30.2149 21.4965 30.2164C21.4807 30.2184 21.473 30.2101 21.4696 30.2068L20.26 28.9972L22.5406 27.4382L23.0245 27.9466L21.5211 30.2016ZM27.7302 24.662V23.7583C27.7302 23.6832 27.7127 23.6092 27.6792 23.5421L27.3806 22.9449C27.2712 22.7261 27.2134 22.4812 27.2134 22.2365V22.2077C27.2134 21.0492 28.1559 20.1068 29.3143 20.1068H33.4827V22.1145C33.4827 22.439 33.406 22.7639 33.2609 23.0541L33.0169 23.5421C32.9833 23.6093 32.9658 23.6832 32.9658 23.7583V24.792C32.9658 25.5062 32.6835 26.1734 32.1709 26.6708C31.6586 27.168 30.9817 27.4306 30.2672 27.4086C28.8683 27.3666 27.7302 26.1345 27.7302 24.662ZM30.2381 28.3749C30.2753 28.3761 30.3123 28.3766 30.3494 28.3766C30.7163 28.3766 31.0744 28.3212 31.4152 28.2154V28.41C31.4152 28.5065 31.4273 28.6009 31.4501 28.6918L30.348 29.7938L29.251 28.6969C29.2701 28.61 29.281 28.5148 29.2809 28.4098L29.2808 28.2058C29.5852 28.3057 29.9061 28.365 30.2381 28.3749Z" fill="black"/>
<path d="M33.4492 31.5446C33.1822 31.5446 32.9658 31.7611 32.9658 32.028V35.1292C32.9658 35.3962 33.1822 35.6126 33.4492 35.6126C33.7161 35.6126 33.9326 35.3962 33.9326 35.1292V32.028C33.9326 31.7611 33.7161 31.5446 33.4492 31.5446Z" fill="black"/>
<path d="M5.55084 32.1836C5.28388 32.1836 5.06744 32.4001 5.06744 32.667V35.1292C5.06744 35.3962 5.28388 35.6126 5.55084 35.6126C5.81781 35.6126 6.03424 35.3962 6.03424 35.1292V32.667C6.03424 32.4001 5.81781 32.1836 5.55084 32.1836Z" fill="black"/>
<path d="M16.3715 16.9592C16.3715 16.9427 16.3823 16.9287 16.3967 16.9265C17.0198 16.8326 18.2562 16.6877 19.5372 16.7731C21.0446 16.8734 22.1365 17.2519 22.7824 17.8978C22.9711 18.0866 23.2772 18.0866 23.4659 17.8978C23.6547 17.709 23.6547 17.4029 23.4659 17.2142C21.6377 15.3859 17.8124 15.7355 16.2525 15.9706C15.7612 16.0446 15.4047 16.4604 15.4047 16.9592V18.0729C15.4047 18.3398 15.6211 18.5563 15.8881 18.5563C16.155 18.5563 16.3715 18.3398 16.3715 18.0729V16.9592Z" fill="black"/>
<path d="M13.8206 32.5784C13.5537 32.5784 13.3372 32.7948 13.3372 33.0618V35.1293C13.3372 35.3962 13.5537 35.6127 13.8206 35.6127C14.0876 35.6127 14.304 35.3962 14.304 35.1293V33.0618C14.304 32.7948 14.0876 32.5784 13.8206 32.5784Z" fill="black"/>
<path d="M25.1916 32.5784C24.9246 32.5784 24.7082 32.7948 24.7082 33.0618V35.1293C24.7082 35.3962 24.9246 35.6127 25.1916 35.6127C25.4586 35.6127 25.675 35.3962 25.675 35.1293V33.0618C25.675 32.7948 25.4586 32.5784 25.1916 32.5784Z" fill="black"/>
</svg>
