<svg width="25" height="25" viewBox="0 0 25 25" fill="none" xmlns="http://www.w3.org/2000/svg">
<circle cx="12.5" cy="12.5" r="12.5" fill="#EBEBEB"/>
<path d="M12.9727 10.4811C11.9746 10.4811 11.1654 11.2903 11.1654 12.2885C11.1654 13.2866 11.9745 14.0958 12.9727 14.0958C13.9709 14.0958 14.7801 13.2866 14.7801 12.2885C14.7801 11.2903 13.9709 10.4811 12.9727 10.4811ZM12.9727 13.2351C12.4499 13.2351 12.026 12.8113 12.026 12.2884C12.026 11.7656 12.4499 11.3417 12.9727 11.3417C13.4956 11.3417 13.9194 11.7656 13.9194 12.2884C13.9194 12.8113 13.4956 13.2351 12.9727 13.2351Z" fill="black"/>
<path d="M20.1805 6.35002L8.43288 5.01607C7.97694 4.95125 7.51499 5.08435 7.16346 5.38186C6.81196 5.65441 6.58665 6.05841 6.5395 6.50067L6.32436 8.26498H5.65732C4.71061 8.26498 4.00058 9.10408 4.00058 10.0508V18.8508C3.97674 19.7535 4.68924 20.5047 5.59205 20.5286C5.61379 20.5292 5.63558 20.5293 5.65732 20.529H17.4695C18.4162 20.529 19.2769 19.7975 19.2769 18.8508V18.5065C19.5704 18.4498 19.8488 18.3326 20.0945 18.1623C20.4431 17.8688 20.6663 17.4531 20.7184 17.0004L21.7082 8.26498C21.8091 7.31609 21.1281 6.46249 20.1805 6.35002ZM18.4162 18.8508C18.4162 19.3241 17.9429 19.6684 17.4695 19.6684H5.65732C5.22972 19.6809 4.87291 19.3445 4.86035 18.9169C4.85969 18.8948 4.85998 18.8728 4.86122 18.8508V17.2586L8.1962 14.8058C8.59682 14.4982 9.16111 14.5255 9.53019 14.8703L11.8754 16.9358C12.2316 17.2349 12.6799 17.402 13.1449 17.4092C13.5084 17.4136 13.866 17.3168 14.1777 17.1295L18.4163 14.6767V18.8508H18.4162ZM18.4162 13.6654L13.7258 16.398C13.323 16.6366 12.8132 16.5934 12.4563 16.2904L10.0896 14.2033C9.41125 13.6205 8.41982 13.5847 7.70131 14.1173L4.86122 16.1828V10.0508C4.86122 9.57743 5.18397 9.12562 5.65732 9.12562H17.4695C17.9752 9.14658 18.3837 9.54572 18.4162 10.0508V13.6654ZM20.8484 8.1488C20.8481 8.15164 20.8478 8.15453 20.8475 8.15737L19.8363 16.8928C19.838 17.1193 19.7347 17.3338 19.5565 17.4737C19.4705 17.5598 19.2768 17.6028 19.2768 17.6459V10.0508C19.2429 9.0706 18.45 8.28718 17.4695 8.26498H7.18496L7.3786 6.58674C7.4206 6.36942 7.53423 6.17248 7.70135 6.02732C7.89005 5.89685 8.1182 5.83602 8.34685 5.85517L20.073 7.21066C20.5461 7.25559 20.8933 7.67561 20.8484 8.1488Z" fill="black"/>
</svg>
